<?xml version="1.0" encoding="utf-8"?>
<!-- Generator: Adobe Illustrator 16.0.0, SVG Export Plug-In . SVG Version: 6.00 Build 0)  -->
<!DOCTYPE svg PUBLIC "-//W3C//DTD SVG 1.1//EN" "http://www.w3.org/Graphics/SVG/1.1/DTD/svg11.dtd">
<svg version="1.1" id="Ebene_1" xmlns="http://www.w3.org/2000/svg" xmlns:xlink="http://www.w3.org/1999/xlink" x="0px" y="0px"
	 width="527px" height="527px" viewBox="0 0 527 527" enable-background="new 0 0 527 527" xml:space="preserve">
<g>
	<path fill="#FED976" fill-opacity="0.8" stroke="#000000" stroke-width="0.2" stroke-linecap="round" stroke-linejoin="round" d="
		M258,278v2h-3l-3,3l1,1l-4,2l-3-4l-4-2l-5-9l9,2l3-2v-3h3l6,4l1,4L258,278z"/>
</g>
<g>
	<path fill="#FEB24C" fill-opacity="0.8" stroke="#000000" stroke-width="0.2" stroke-linecap="round" stroke-linejoin="round" d="
		M264,349l6-1l3,2l-3,5l7,1l-2,4l3-1l1,2l-3,8l-10-2l-6,4l-4-4v-5h-7l-3-5l3-5l9-3l1-3L264,349z"/>
</g>
<g>
	<path fill="#FED976" fill-opacity="0.8" stroke="#000000" stroke-width="0.2" stroke-linecap="round" stroke-linejoin="round" d="
		M309,403l5-8l3,1l1,6l-2,3l-6-1L309,403z"/>
</g>
<g>
	<path fill="#FED976" fill-opacity="0.8" stroke="#000000" stroke-width="0.2" stroke-linecap="round" stroke-linejoin="round" d="
		M389,351l-5,1l-8,11l-7,2v4l-3,4h-4l-5-3l-3-9l4-6v-6l-3-3l1-3h3l-3-9l4-3l5,3l1-1l6,3l3-1l4,2l6,7l2,6L389,351z"/>
</g>
<g>
	<path fill="#FFFFB2" fill-opacity="0.8" stroke="#000000" stroke-width="0.2" stroke-linecap="round" stroke-linejoin="round" d="
		M368,423l3-7l5-3h5l-1-4h-3l-5-3l-1-9l2-3l5,2h6l1-1l-1-2h-2l-1-5l6-3l9,15l-7,10l1,1l-3,6l2,2h5l2-2l7,5l-1,1l2,5l-6,15l2,4l-4,5
		l-3-3v2l-6-3l-10-8l-2-3l1-3l2-2l1,1l-6-6l3-3h-7L368,423z"/>
</g>
<g>
	<path fill="#FED976" fill-opacity="0.8" stroke="#000000" stroke-width="0.2" stroke-linecap="round" stroke-linejoin="round" d="
		M270,390l3,3v3l-4,6l5,4l-2,5l2,3l-4,3h4l1,3l-2,5l2,5l-7,3v2h2l-2,1l-1,8l-8,3l-6-2l-2,2h-3l-11-11l2-4v-6l6-2l2-8l4-2l-2-7h-5
		l-1-2v-14l1-2h6l2-6h4l7,3l1-1l5,5H270z"/>
</g>
<g>
	<path fill="#FED976" fill-opacity="0.8" stroke="#000000" stroke-width="0.2" stroke-linecap="round" stroke-linejoin="round" d="
		M258,319l2,12l6,3v4l-6,4l-2,7l-8,3v-2l-3-3l-5,1l-2-4h-4l-6-5l-6,4v-6l4-4l2-10l6-4l8-2l7,7L258,319z"/>
</g>
<g>
	<path fill="#FFFFB2" fill-opacity="0.8" stroke="#000000" stroke-width="0.2" stroke-linecap="round" stroke-linejoin="round" d="
		M308,360l1,2l3,1l-2,3l3,14l-3,4l-6,1l-6-5v9l-8-2l1-1l-8-6l2-10l-4-9l3-3l-2-8l3-1l9,3l4,5l6-1L308,360z"/>
</g>
<g>
	<path fill="#FED976" fill-opacity="0.8" stroke="#000000" stroke-width="0.2" stroke-linecap="round" stroke-linejoin="round" d="
		M252,233l9-1l1,9l5,8l3,1l1,2l7,1l3,6l-4,6v2l3,1l-1,4l-2-1l-2,2l-4-3l1-2h-3l-4,4v4l-3,3h-2l-2-1l1-6l-7-4l-3-1v4l-3,2l-8-2l-3,3
		l-11-6l-5,3l-2-1l-1-3h-2l-3-5l-4-1l13-6l-2-3l4-5h4v-3l4-7l3-2h3l1,5l6,3l7-6l1-3l-3-3L252,233z"/>
</g>
<g>
	<path fill="#FED976" fill-opacity="0.8" stroke="#000000" stroke-width="0.2" stroke-linecap="round" stroke-linejoin="round" d="
		M306,321h12l9,15l-3,12l1,3h-4l-7,5l-7,2l1,2l-3-4l-6,1l-3-2v-2l-13-4l-2-2l1-2l-2-3l3-3l2-8l6-8l6-2l4-4l4,4H306z"/>
</g>
<g>
	<path fill="#FED976" fill-opacity="0.8" stroke="#000000" stroke-width="0.2" stroke-linecap="round" stroke-linejoin="round" d="
		M296,300h5v10l5,10l-1,1l-4-4l-4,4l-6,2l-6,8l-3,9l-7,3l-6-1l-3-3v-4l-6-4l-2-11l4-3l2-4h2l3,3l3-3l1-10l5-4v-4l6,3v-2h2l6,4l3-1
		L296,300z"/>
</g>
<g>
	<path fill="#FED976" fill-opacity="0.8" stroke="#000000" stroke-width="0.2" stroke-linecap="round" stroke-linejoin="round" d="
		M250,352l-4,5l3,5h2l-1,2l-1-1l-4,2l-4-1v-2l-5-1l-6,5l-4-1l-4,3l-4-2l1-5l-4-2l-2-3l5-3l2-12l2,3l8-5l6,5h4l2,4l5-1l3,3V352z"/>
</g>
<g>
	<path fill="#FFFFB2" fill-opacity="0.8" stroke="#000000" stroke-width="0.2" stroke-linecap="round" stroke-linejoin="round" d="
		M245,421v3l-6,1v7l-2,5l3,1l8,9l3,1l-3,3l3,1v2h-7l-6,7h-4l2-4l-4-1l-10,5h-11l-1-2l2-2l-7-8h-4v-2l4-2l-3-6l6-5l4-7l-2-6l1-3l5,1
		l2-2l8-2l3,2l3-1l10,4L245,421z"/>
</g>
<g>
	<path fill="#FFFFB2" fill-opacity="0.8" stroke="#000000" stroke-width="0.2" stroke-linecap="round" stroke-linejoin="round" d="
		M216,353v2h-3l1,3l5,3l-1,5l3,2l5-2l-1,7l2,14l-8,6h-6l-2,4h-10l-2,3l-7,1l1-12l4-8l-1-6l-5-1l6-8l-2-1l-1-5h4l4-3l2-10l4,2v2
		L216,353z"/>
</g>
<g>
	<path fill="#FED976" fill-opacity="0.8" stroke="#000000" stroke-width="0.2" stroke-linecap="round" stroke-linejoin="round" d="
		M287,390l-1,1l6,8l1-1l7,3v2l-3,2l2,4h3l2,3l1,7l3,5l-1,3l1,2h2v2l-13,1l-7,4l-22-1l1-3l6-2l-2-5l2-5l-1-3h-4l4-3l-2-3l2-4l-1-3
		l-4-2l4-6v-3l-3-3l6-2h2v2h4v-2h2L287,390z"/>
</g>
<g>
	<path fill="#FED976" fill-opacity="0.8" stroke="#000000" stroke-width="0.2" stroke-linecap="round" stroke-linejoin="round" d="
		M360,331l-4,3l3,7v2h-2l-2,3l3,3v6l-2,3h-7l-3,6h-2l-1-2l-4,2l-1-2l-4,3h-3l-8-4l-4,7l-3-2l2-2l-1-2l-4,1l-5-3l-1-2l5-1l9-6l3,1
		l3-16l4-2l3,2l3-2l2-3l3-1l2-6l7-2l5,3L360,331z"/>
</g>
<g>
	<path fill="#FED976" fill-opacity="0.8" stroke="#000000" stroke-width="0.2" stroke-linecap="round" stroke-linejoin="round" d="
		M266,339l5,4l9-1l2,2l2,14l-3,3l4,9l-2,10l7,4l1,2l-2,4l-5-2l-6,3v-3l-10,2l-3-5l-2,1l-7-3h-4l-2-2l3-3l-2-4l1-8l-4-2h2l2-3l3,1
		l1,5l3,4l4-1l3-3l9,2l3-4v-6l-3,1l2-4l-7-1l3-5l-3-2l-6,1l-5-3l1-4L266,339z"/>
</g>
<g>
	<path fill="#FFFFB2" fill-opacity="0.8" stroke="#000000" stroke-width="0.2" stroke-linecap="round" stroke-linejoin="round" d="
		M237,273l6,8l3,1l3,4l3-2l3,1l-2,6l-8,5v2l3,1l-1,2l-3,1l2,2l-6,11l-3,1l-5-5v-4l-4-2l-1-7l-12-3l2-1v-3l-4-3l-1-3l1-10l-2-2v-4
		l5-2l2,4l6-3l11,6L237,273z"/>
</g>
<g>
	<path fill="#FED976" fill-opacity="0.8" stroke="#000000" stroke-width="0.2" stroke-linecap="round" stroke-linejoin="round" d="
		M279,272h-2v5l-4,1v6l3,2l2,5l-2,4h2v3l-5,5l1,8l-4,5l-5-3l-2,1l-3,5l-6,2v2l-3,1l-6-7l-3,1l-2-3l6-10l-2-4l4-1l-3-3l3-4l5-2l2-6
		l-3-2l3-3h3v-2h6l2-4l-1-2l4-4h3l2,5l3-2l1,1H279z"/>
</g>
<g>
	<path fill="#FED976" fill-opacity="0.8" stroke="#000000" stroke-width="0.2" stroke-linecap="round" stroke-linejoin="round" d="
		M325,361l5,4h4l4-3l2,2l-5,3l-1,4l3,3l-3,9l5,3h3l3,4l-4,7l-2-2l-2,2l1,4l6,2v2l-4-1l-1,7l-4,5v4l-7,3l-2-2l2-6l-3,3l-6,2l4,12
		l-7,1l-5-1l-1-3l-3-1l1-4l-2-2l-2-10l-7-6l1-2h2v-3l-9-3l-5-7l3-1l1-3l7,2l2-2l-1-7l6,5l6-1l3-3l-2-6v-11l5-2l2,2l-2,2l2,2l3-2l2-5
		H325z M311,398l-2,5l3,2h4l2-3l-1-6h-4L311,398z"/>
</g>
<g>
	<path fill="#FED976" fill-opacity="0.8" stroke="#000000" stroke-width="0.2" stroke-linecap="round" stroke-linejoin="round" d="
		M340,400v-3l2,2l-1,1H340z"/>
</g>
<g>
	<path fill="#FED976" fill-opacity="0.8" stroke="#000000" stroke-width="0.2" stroke-linecap="round" stroke-linejoin="round" d="
		M248,364l4,2l-1,8l2,3l-1,3h-2l2,2l-2,7h-6l-1,2l1,13h-2l-2-1l1-5l-2-3h-9l5-5l-8-5l-2-19h5l6-5l5,1v2l7,1V364z"/>
</g>
<g>
	<path fill="#FED976" fill-opacity="0.8" stroke="#000000" stroke-width="0.2" stroke-linecap="round" stroke-linejoin="round" d="
		M356,358l-2,2l3,10l5,3h4l3-3l-1-5h5v4l9,9l2,7v3h-2v4l1,2h2l-1,2h-6l-5-2l-2,3l1,9l2,2l6,1l2,4h-5l-6,3l-3,7l-8,1l-3,3v2l-6,1
		l-7-6l1-3l-10,1v-5l1-3l3-2l1-7h3l1-2l-6-1l-1-5l1-2l3,2l4-7l-3-4h-3l-5-3l3-9l-3-2l2-6l7-4v2h2l4-3v-3l3,1l3-2L356,358z M340,400
		l2-1l-2-2V400z"/>
</g>
<g>
	<path fill="#FFFFB2" fill-opacity="0.8" stroke="#000000" stroke-width="0.2" stroke-linecap="round" stroke-linejoin="round" d="
		M243,404l1,2l5,1l2,7l-5,4l1,1l-2,2l-5-3l-8-2h-10l-6,3l-5-1l-1,2l2,3v4l-3,5h-2l-4-6l-10-1l5-7l-2-1l-5,5h-2l-1-2l1-8h4v-2l-3-3
		l2-6l7-1l2-3h10l2-4h6l9-7l7,4l-5,5h8l3,4l-1,3l2,2H243z"/>
</g>
<g>
	<path fill="#FED976" fill-opacity="0.8" stroke="#000000" stroke-width="0.2" stroke-linecap="round" stroke-linejoin="round" d="
		M306,310l4-4l4-1l1-4h2l2,4l8-7l3,1l-9,10L306,310z"/>
</g>
<g>
	<path fill="#FED976" fill-opacity="0.8" stroke="#000000" stroke-width="0.2" stroke-linecap="round" stroke-linejoin="round" d="
		M442,299v2l-4,3l-2-1l-4,3l-6-7v-2l7-1l9,2V299z"/>
</g>
<g>
	<path fill="#FED976" fill-opacity="0.8" stroke="#000000" stroke-width="0.2" stroke-linecap="round" stroke-linejoin="round" d="
		M348,260h3l2-7l7,4l4-2l1,4l-11,5l-6-3V260z"/>
</g>
<g>
	<path fill="#FED976" fill-opacity="0.8" stroke="#000000" stroke-width="0.2" stroke-linecap="round" stroke-linejoin="round" d="
		M413,261v7h4v6l2,5l-1,3l-4,2l-5-1l-4,4l-1,7h-6l-3,4l-5-4v-4l-10-3l-6-12l-1-9l2-1l4,2l2-2l1-2l-2-5l3-4v-5l7,3h2l1-3h3l2,1v5l4,4
		l4-1L413,261z"/>
</g>
<g>
	<path fill="#FED976" fill-opacity="0.8" stroke="#000000" stroke-width="0.2" stroke-linecap="round" stroke-linejoin="round" d="
		M433,245l7,5h2l-1-1l2-3l4,1l5,4l4,8h5l3,2l1,4l5,5l-1,3l2,1l-3,8l-6-1l-2,4l-11,1l-7-6l-5,2l-3-5l-6-1l-2,2h-7l-2-4l1-4l-5-2v-7
		l5,1l3-2v-10h4l4-5h3H433z"/>
</g>
<g>
	<path fill="#FED976" fill-opacity="0.8" stroke="#000000" stroke-width="0.2" stroke-linecap="round" stroke-linejoin="round" d="
		M313,274l-8,2l-9,7l-2,7l2,10h-4l-5-4h-3v2l-8-3v-2l2-1l-2-6l-3-2v-6l5-2l-2-4l4-1l1-3l-4-1v-2l4-6l-3-6l-7-1l-3-3l2-4l-1-4l7-2
		l7,6l4-5l5-1l3,2l3,9l5-2l7,2l2,5h2l2,4v2l-3,3l1,6L313,274z"/>
</g>
<g>
	<path fill="#FED976" fill-opacity="0.8" stroke="#000000" stroke-width="0.2" stroke-linecap="round" stroke-linejoin="round" d="
		M316,275l12,6l3-4l2,2l-1,1l8,7v4l-3,3v8l4,2v3l6-4l4,2l-3,2l3,4l-4,2l1,9l-4,2l-2,6l-8,6h-2l-1-2l-4,2l-9-15h-12l-2-7l-3-4v-9
		l-4-1l-2-4l-1-6l2-7l6-3l3-4l8-2L316,275z M307,309l-1,1l15-1l9-9v-2h-3l-8,7l-2-4h-2l-1,4l-7,3V309z"/>
</g>
<g>
	<path fill="#FED976" fill-opacity="0.8" stroke="#000000" stroke-width="0.2" stroke-linecap="round" stroke-linejoin="round" d="
		M468,282l2,7l-1,11l-6,4l-2,6l-5-3l-1-3l-7-1l-7-6l-14-1l-1,3l2,4l4,3l3-1l2,5l-3,7l1,4l-2,7l-9,9l-6,3h-6l-3-7l-5-1v-5l5-2l2-4h-2
		l-3-3v-3l-2-2v-7l-2-2l-3,1l-2-2v-3l-3-1l4-5h7l-1-4l5-7l5,1l4-2l1-3l7-1l2-2h6l3,6l6-2l6,6l11-1l2-4h4L468,282z"/>
</g>
<g>
	<path fill="#FED976" fill-opacity="0.8" stroke="#000000" stroke-width="0.2" stroke-linecap="round" stroke-linejoin="round" d="
		M415,225l6,1l4,3l7,7l1,6v3h-4l-3,5h-5l1,8l-4,4l-12-4l-4,1l-4-4v-5l-2-1h-3l-1,3l-5-1l-3-4v-3l-5-5l-5-13l2-3h8l2,2l4-2l3-4l7,2
		l7,6l4-9l1,6L415,225z"/>
</g>
<g>
	<path fill="#FFFFB2" fill-opacity="0.8" stroke="#000000" stroke-width="0.2" stroke-linecap="round" stroke-linejoin="round" d="
		M395,298l-1,1l3,1v3l2,2l3-1l3,2l-2,7l3,2v3l3,3h2v2l-7,4l-1,2l2,4h4l3,7l-9,2l-6,3l-6,6h-2l-11-15h-6l-5-3l-7-1l-4-7l-8-4l-1-8
		l4-2l1,3h2l1-6l5,1l2,2l-1,3l3-1l6-5l1-3h4l-1-5l2-2l5-2h11L395,298z"/>
</g>
<g>
	<path fill="#FED976" fill-opacity="0.8" stroke="#000000" stroke-width="0.2" stroke-linecap="round" stroke-linejoin="round" d="
		M385,249h-2v5l-3,4l2,5l-1,2l-2,2l-4-2l-3,3l2,1l-4,3l-2,4h-3l-6,4h-4l-3-4l-3-1h-7l-8,6l-2-1v-3l-4,4l-12-7l9-5l7-7l6,2l5-4v-4
		l3-3l-2-7l4-3l-1-6l2-3l10-6l15-1l2,2l3,10l5,5v3L385,249z M351,260h-3l4,4l11-3l2-2v-4h-3l-2,2l-6-4l-3,6V260z"/>
</g>
<g>
	<path fill="#FED976" fill-opacity="0.8" stroke="#000000" stroke-width="0.2" stroke-linecap="round" stroke-linejoin="round" d="
		M374,270v5l6,12l3,2l7,1l1,6h-9l-6,2l-2,2l1,5h-4l-2,4l-7,5v-3l-4-3h-3v6h-3l-4-7l3-2l-2-2h-5l-3,4v-3l-5-3l4-14l-6-5l1-2l7-5h6
		l5,2l2,3h4l6-4h3l5-6H374z"/>
</g>
<g>
	<path fill="#FED976" fill-opacity="0.8" stroke="#000000" stroke-width="0.2" stroke-linecap="round" stroke-linejoin="round" d="
		M284,181l1-3l8-5l3,7l-7,5l-4-3L284,181z"/>
</g>
<g>
	<path fill="#FED976" fill-opacity="0.8" stroke="#000000" stroke-width="0.2" stroke-linecap="round" stroke-linejoin="round" d="
		M307,241v-3l5-1l1-3l3-2v2l4,4l1,6l-1,2l-7,1L307,241z"/>
</g>
<g>
	<path fill="#FED976" fill-opacity="0.8" stroke="#000000" stroke-width="0.2" stroke-linecap="round" stroke-linejoin="round" d="
		M310,148l6-5h3l9,6v4l-1,1l-3-4h-4l-3,6l-5-6L310,148z"/>
</g>
<g>
	<path fill="#FED976" fill-opacity="0.8" stroke="#000000" stroke-width="0.2" stroke-linecap="round" stroke-linejoin="round" d="
		M315,166h-3l-1,2l2,5l-1,2h-2v-2l-3,1v8l-5-1l4,6l4,1v5h-6v4l-3,2l-2,5l2,2l-2,5l1,1h-2v-5l-2-2l-9-3l-8-7l-3,3l-2-1l-3-2l1-5l-3-3
		l-1,1l-3-2l-1-3l3-7l-2-4l-3-1l1-4l-3-2l3-1l2-3l-2-3l5-2v-3l-3-3v-8l3-4l-1-1l3-1l3,7l-1,11l9,1l4-4l8,3l2-2h4l3,1l2,5l-1,2l3,2
		l3-1l5,2l1,2V166z M292,173l-3,4l-4,1l-1,3l5,4l7-5l-3-7H292z"/>
</g>
<g>
	<path fill="#F03B20" fill-opacity="0.8" stroke="#000000" stroke-width="0.2" stroke-linecap="round" stroke-linejoin="round" d="
		M362,176l2,5l2,2h3l4,4l2,7l9,2v-2l7,1l7,5v5l12,13l-3,9l-7-6l-7-2l-3,4l-4,2l-2-2h-8l-2,4l-15,1l-12,8l1,2l-5-2v-7l-4-1l1,1l-2,1
		h-4v-6l-2-3l2-5l5-2l3-5l-1-2l2-2h5l3-7h-2l-1-3v-8l2-2l5-1l-3-4l1-1l8-5l1,1V176z"/>
</g>
<g>
	<path fill="#FED976" fill-opacity="0.8" stroke="#000000" stroke-width="0.2" stroke-linecap="round" stroke-linejoin="round" d="
		M264,184l3,4h4v7l5,3l3-3l7,7l10,3l2,2v8l-2,3l-6,3l-3-3l-2,2v3l-4,3l1,2l-7,3l-2,9l-4,1l1,4l-2,4l-7-11l2-5h-11l-4-2l-2-5l-4-2v-6
		l-5-5l4-1l-1-7l-8-1l-2-3l5-4h3l5,3l5-3l1-4l7-10l6,2L264,184z"/>
</g>
<g>
	<path fill="#FEB24C" fill-opacity="0.8" stroke="#000000" stroke-width="0.2" stroke-linecap="round" stroke-linejoin="round" d="
		M341,136l3,8l8,2v10h2l3,4l-1,3l2,4l-2-2l-4,3l-4-2l-13,6l-4-3l1-2h-4l-3-7h-3l-1,3l-6,3l-1-3l-5-2l-3,1l-3-2l1-2l-2-5l-3-1l-6,2
		l-8-3l-4,4l-9-1l1-10l-3-9l1-5l7-2l2-3h5l4-2l7,7h4l3-3l5,5l3,1l3-6l6-4l7,12l13,2L341,136z M311,148l5,8l4-6h3l4,4l1-1v-3l-9-7h-3
		L311,148z"/>
</g>
<g>
	<path fill="#FED976" fill-opacity="0.8" stroke="#000000" stroke-width="0.2" stroke-linecap="round" stroke-linejoin="round" d="
		M332,221l2,3v6h4l2-1l-1-1h2l3,6l-1,1l5,3v5l-4,2l2,8l-3,3v4l-5,4l-5-2l-4,2l-4,5l-9,4v2l-3-1v-10l3-5l-1-3l-3-1v-4l-9-3l-4,2l-2-1
		v-4l-2-4l-3-2l-5,1l-4,5l-5-5h-5l2-8l2-3l5-1l-1-2l4-3l2-5l3,3l9-6l14,7l3-4h2v-4l2-3l2,6l3,3l6-1L332,221z M307,241l6,6l7-1l1-2
		l-1-6l-4-4v-2l-3,1l-1,4l-5,1v2V241z"/>
</g>
<g>
	<path fill="#FED976" fill-opacity="0.8" stroke="#000000" stroke-width="0.2" stroke-linecap="round" stroke-linejoin="round" d="
		M322,160h3l3,7h4l-1,2l4,3l13-6l5,2l3-3l4,4h3v5l-1,2v-2h-2l-1,2l-7,4l3,4l-5,1l-2,2v8l1,3h2l-3,6l-7,2v5l-2,3l-5,2l-2,5l-1-2l-6,1
		l-4-5v-4l-3,2v5l-7,4l-1-2l-5-1l-6-4l2-9l-2-1l2-6l3-1v-4l6-1v-4l-5-3l-3-4h5v-9h3v2h2v-9h5l4-3l1-4V160z"/>
</g>
<g>
	<path fill="#F03B20" fill-opacity="0.8" stroke="#000000" stroke-width="0.2" stroke-linecap="round" stroke-linejoin="round" d="
		M341,136l-1,1l-13-2l-7-13l-7,6l-2,5l-3-1l-5-5l-7,3l-2-1l-2-2l-1-9l-4-10l14-3h13l7-3l2-2l-1-3h5l2-3l4,1l1,2l15,8l1,1l-3,3l1,2
		l6,3l-4,11l-1-1l-2,2v6L341,136z"/>
</g>
<g>
	<path fill="#FED976" fill-opacity="0.8" stroke="#000000" stroke-width="0.2" stroke-linecap="round" stroke-linejoin="round" d="
		M197,116l7-3l5,2v7l-2,2l-9-5L197,116z"/>
</g>
<g>
	<path fill="#FEB24C" fill-opacity="0.8" stroke="#000000" stroke-width="0.2" stroke-linecap="round" stroke-linejoin="round" d="
		M263,107l2-2l5,2l1-1l3,5l-4,2l-2,5h-3l-7-8l1-2h4V107z"/>
</g>
<g>
	<path fill="#FED976" fill-opacity="0.8" stroke="#000000" stroke-width="0.2" stroke-linecap="round" stroke-linejoin="round" d="
		M203,62l6-2l5,4h5l-8,5l-7-3h2l-2-4H203z"/>
</g>
<g>
	<path fill="#FD8D3C" fill-opacity="0.8" stroke="#000000" stroke-width="0.2" stroke-linecap="round" stroke-linejoin="round" d="
		M294,52l6,1l2,2v2l-6,7h-2l-6-5l5-4v-3H294z"/>
</g>
<g>
	<path fill="#FED976" fill-opacity="0.8" stroke="#000000" stroke-width="0.2" stroke-linecap="round" stroke-linejoin="round" d="
		M236,104l-5,5l2,2l-2,7l4,2l-1,4l-11,1l-1,5l-7,3h-9l-11,5l-7-6l-5,4l3,2l-3,3l-10-4l-2-5h-6l-2-4l2-9l11,1l1,3l9-8l5-8l3-12l2,2
		l2-5h2v-3h3v5l2,3l4-2l4,3v2l11-5l6-1l1,1l-4,4l8,4L236,104z M206,113l-9,3l1,3l7,5l4-2v-7L206,113z"/>
</g>
<g>
	<path fill="#FED976" fill-opacity="0.8" stroke="#000000" stroke-width="0.2" stroke-linecap="round" stroke-linejoin="round" d="
		M285,87l8,10l-2,1l5,8l-4,2l-2-1l-3,3l4,7v7l-2-1l-8,2l-3,3l-6,1l-2,6l1,1l-3,1l-5,8l1,7l-12,2v3l-3-2l-1-6l-2-1v-9l2-4l-3-2l2-3
		l-4-2l1,1l-3,1l-4-6v-4l-6-1l2-8l-2-2l5-4l1-3l3,5l8,4l3-7l15-3l6-5v-4l4-2l-1-6h9L285,87z M263,107l-5,2l7,9h3l3-6h3l-3-6l-1,1
		l-4-2L263,107z"/>
</g>
<g>
	<path fill="#FED976" fill-opacity="0.8" stroke="#000000" stroke-width="0.2" stroke-linecap="round" stroke-linejoin="round" d="
		M208,47l1,3l3,2l1-2l4,2l7-2l2,2l2,3l-3,3l1,3l6,5l-3,8l2-1l-2,3l-6-4h-11l2,2v3l-8,4l3,4h-4l-3,4h-2l2-7l-2-2l-5,2l-2-1l-1-10
		l-4-4l1-1l3,2h6l2-4l-13-8v-6l3,1l4-4l14-1V47z M203,62l3,2v2h-2l7,3l8-5h-4l-5-4l-5,1L203,62z"/>
</g>
<g>
	<path fill="#FED976" fill-opacity="0.8" stroke="#000000" stroke-width="0.2" stroke-linecap="round" stroke-linejoin="round" d="
		M247,149h-2l-1,3l-5,4v2l-7,2h-8l-3-2l-4-10l-6-1l-5-4l3-1l-2-9l2,1l11-3l2-1l3-6l8,1l1-4l3-1l3,10h7l-2,2l3,3l-2,4v9L247,149z"/>
</g>
<g>
	<path fill="#FD8D3C" fill-opacity="0.8" stroke="#000000" stroke-width="0.2" stroke-linecap="round" stroke-linejoin="round" d="
		M297,42l5,5v5l10,3l3,3l2,5l-4,2v2l6,4l-3,1l-4-2l-4,3l-1,3l-4,2l1-3l-3-2l-3,1l-1,5l-9,8h-3l-1-3h-9l-2,2l-1-4l3,1l1-3l-3-1l2-4
		l-2-5l-4-1l1-5l-4,2l-4-2l2-2v-4l-3-2l1-4l7-6l-1-1l2,2l16-4l2,3L297,42z M294,52l-1,3l-5,3l6,6h2l6-7v-2l-2-2h-6V52z"/>
</g>
<g>
	<path fill="#FED976" fill-opacity="0.8" stroke="#000000" stroke-width="0.2" stroke-linecap="round" stroke-linejoin="round" d="
		M257,41l4,7h3l1-3l4,1l-7,6l-1,3l3,3v4l-7,5l-6,7l2,2h-4l-5,3h-5l-5-4v-2h-5l3-7l-2-2l1-2l5,2l1-1V52l2-1v-3l-3-14l7-2l2-4l7,1l1,3
		h-2v6l3,3H257z"/>
</g>
<g>
	<path fill="#FED976" fill-opacity="0.8" stroke="#000000" stroke-width="0.2" stroke-linecap="round" stroke-linejoin="round" d="
		M275,84l1,5l-4,3l1,4l-7,5l-15,3l-3,7l-8-4l-4-7h2l2-3l2-11l4-2l-2-5l4-3h5l-2-2l6-7l5-3l3,2l5-2l-1,5h4l2,8h-2l-1,2l4,1l-1,3l-2-1
		l-1,2l1,2l1-1L275,84z"/>
</g>
<g>
	<path fill="#FED976" fill-opacity="0.8" stroke="#000000" stroke-width="0.2" stroke-linecap="round" stroke-linejoin="round" d="
		M231,73h3v2l3,3l7,2l2,2v2l-4,2l-2,5l1,6l-3,3h-2v4l-9-4v-2l4-2l-1-2l-6,1l-10,5l-5-5l-4,2l-1-1l-2-7l3-4h4l-3-4l8-4l-2-4l5-2l6,1
		l6,4l2-2V73z"/>
</g>
<g>
	<path fill="#BD0026" fill-opacity="0.8" stroke="#000000" stroke-width="0.2" stroke-linecap="round" stroke-linejoin="round" d="
		M319,71l5,7l-2,7l3,4l4,2l-2,6h-4v3l-2,2l-7,3l-18,1l-3-6l-2-1l2-1l-1-2l-7-9l7-3l5-5l1-4l3-2l3,2l-1,3l4-2l5-6l6,2L319,71z"/>
</g>
<g>
	<path fill="#FFFFB2" fill-opacity="0.8" stroke="#000000" stroke-width="0.2" stroke-linecap="round" stroke-linejoin="round" d="
		M164,203l1-6h4l3-2h4l6,3l-4,5l2,3v4l-16-6V203z"/>
</g>
<g>
	<path fill="#FED976" fill-opacity="0.8" stroke="#000000" stroke-width="0.2" stroke-linecap="round" stroke-linejoin="round" d="
		M216,167l-9,1v-16l5,5h6l-2,5l1,5H216z"/>
</g>
<g>
	<path fill="#FEB24C" fill-opacity="0.8" stroke="#000000" stroke-width="0.2" stroke-linecap="round" stroke-linejoin="round" d="
		M212,181l-2-3h-5l-1-3l3-6l5-2l4,9l-3,5H212z"/>
</g>
<g>
	<path fill="#BD0026" fill-opacity="0.8" stroke="#000000" stroke-width="0.2" stroke-linecap="round" stroke-linejoin="round" d="
		M216,167l3,5l4-1l4,6h3l-4,2l-1,2l2,2h6l-3,3l1,2l-8,1l1,3l-3,3h-2l-6-5l3-4l-4-5l4-5l-4-9H216z"/>
</g>
<g>
	<path fill="#FFFFB2" fill-opacity="0.8" stroke="#000000" stroke-width="0.2" stroke-linecap="round" stroke-linejoin="round" d="
		M219,195h2l1,4l-4-1l-1,3l-4-1l-2-7l1-3l5,3L219,195z"/>
</g>
<g>
	<path fill="#FFFFB2" fill-opacity="0.8" stroke="#000000" stroke-width="0.2" stroke-linecap="round" stroke-linejoin="round" d="
		M237,185l-1-2l3,1L237,185z"/>
</g>
<g>
	<path fill="#FED976" fill-opacity="0.8" stroke="#000000" stroke-width="0.2" stroke-linecap="round" stroke-linejoin="round" d="
		M186,181l5,2l-1,2l3,4l8,4l1,5l3,3v7l-7,7l-7-1l-3,2l-6,8l-1,6l4,2l-1,7l-3,1l-5-3l-5,2v2h-8l-2,1l-1,3l-6-7l-8-2l-1,1v-8h-3l3-6
		l-2-3l-9-5l-1-7l3-3v-2l-2-2l1-3l-3-2v-7l5-1l-3-7l-3-1l2-4l1,1l5-3h5l3,2l-2,3l4,6l5-2v2h3l2-2l-1-1l7,3v-2l5-4l1,2l7-1l-1,3l8-1
		L186,181z M164,202v2l16,6v-4l-2-2l4-6l-1-1l-7-2l-9,2L164,202z"/>
</g>
<g>
	<path fill="#FED976" fill-opacity="0.8" stroke="#000000" stroke-width="0.2" stroke-linecap="round" stroke-linejoin="round" d="
		M190,133l5,5h2l9-6l3,10h-3l1,2l4,3l6,1l6,12h9l7-2l-2,5l-1-1l-5,2l-2,12l-2,1l-4-7l-4,2l-3-4v-6l2-5h-6l-5-5v15l-2-1l-2,2h-7l1-3
		l-2-4l-4-1l3-9l-5-5l-10,2l-3-2v-2l9-4l1-2l-3-2l4-4l2,1H190z"/>
</g>
<g>
	<path fill="#FED976" fill-opacity="0.8" stroke="#000000" stroke-width="0.2" stroke-linecap="round" stroke-linejoin="round" d="
		M207,167l-3,8l1,2l5,1l6,8l-3,3h-4l-2,3l-5,1l-9-4l-4-4l2-2l-5-2l-2-8l12-5h7l2-2L207,167z"/>
</g>
<g>
	<path fill="#FED976" fill-opacity="0.8" stroke="#000000" stroke-width="0.2" stroke-linecap="round" stroke-linejoin="round" d="
		M265,142v8l3,3v2l-5,3l2,2l-1,3l-4,1l1,2h2l-1,5l3,1l2,3l-3,9l-1,1l-7-2l-7,10l-1,4l-4,3l-8-3l-7-9h2l-1-4h3l-3-2h-5l1-3l4-2l-1-3
		l2-10l4-2l2,1l2-3v-4l7-7h2l1,6l3,2v-2l6-3l5,1l1-11H265z M237,185l2-1l-3-1L237,185z"/>
</g>
<g>
	<path fill="#FED976" fill-opacity="0.8" stroke="#000000" stroke-width="0.2" stroke-linecap="round" stroke-linejoin="round" d="
		M182,141l-6,2v3l2,2l11-2l5,5l-3,9h2l4,5l-1,3l-12,5v2l2,1l-1,6l-7,1v-2l-2-1h-6l-7,5l-1-2l-3-1l-2,3h-3v-2l-5,2l-3-3l-1-3l2-2
		l-3-3h-5l-5,3l-1-5l-4-2l2-2l-2-4l1-7l2-2l4,2v2l2,1l3-3l-1-2l2-1h15l-3-10l8-7h10l9,3L182,141z"/>
</g>
<g>
	<path fill="#FED976" fill-opacity="0.8" stroke="#000000" stroke-width="0.2" stroke-linecap="round" stroke-linejoin="round" d="
		M229,188l7,8l-6,4l2,4l8,1l1,7l-4,1l1,3l4,2l-1,1l2,7h2l6,8l-1,3l-7,5h-4l-2-2l-1-5l-4,1l-20-16l-4,2v2l-3-1l-5-3l-2-5l7-7v-6l-4-8
		l1-1h5v-3l6-1l-2,3l2,8l4,1l1-3l4,1l-1-3l3-3l-1-4L229,188z"/>
</g>
<g>
	<path fill="#FED976" fill-opacity="0.8" stroke="#000000" stroke-width="0.2" stroke-linecap="round" stroke-linejoin="round" d="
		M198,215l2,5l7,4l5-4l20,16l-6,7v3l-6,3l-2,3l2,2l-13,7l-2-2l-4,1l-5-4l2-2l-2-5l-4,4h-3l-2,3l-4-3l2-2v-3l-3-4h-2l1-4h2l2-4v-4
		l-4-2l1-5l6-9l3-2l6,1H198z"/>
</g>
<g>
	<path fill="#FED976" fill-opacity="0.8" stroke="#000000" stroke-width="0.2" stroke-linecap="round" stroke-linejoin="round" d="
		M53,111l-8,2l-4-1l-2-3v-3h2v-2l-3-3l2-2l6,3l3,3v3L53,111z"/>
</g>
<g>
	<path fill="#FED976" fill-opacity="0.8" stroke="#000000" stroke-width="0.2" stroke-linecap="round" stroke-linejoin="round" d="
		M137,98l2-4l4-2l1-3l3,5l-3,2l1,3l-3,2l-3-2L137,98z"/>
</g>
<g>
	<path fill="#FED976" fill-opacity="0.8" stroke="#000000" stroke-width="0.2" stroke-linecap="round" stroke-linejoin="round" d="
		M111,128l3-4l7,1l2,5l-5,5l3,3v5h-2l-8-6l1-6L111,128z"/>
</g>
<g>
	<path fill="#FED976" fill-opacity="0.8" stroke="#000000" stroke-width="0.2" stroke-linecap="round" stroke-linejoin="round" d="
		M68,90l-2,4l2,6l-1,3h2l3,3l-1,1l4,2l-5,5l1,5h-2l-4,4v2l-5,1v-2l-5-3l2-5l-2-4h-2l-7-10l-5-3l-3,2l3,3v2h-2l2,10l-1,3l-4,1l-3-15
		l1-8l-5-1l4-10l9-2l4,4l2-5l4-2l13,2l3,6V90z"/>
</g>
<g>
	<path fill="#FFFFB2" fill-opacity="0.8" stroke="#000000" stroke-width="0.2" stroke-linecap="round" stroke-linejoin="round" d="
		M102,42l7,4l6-2l1-2l2,5v3h-2v4l5,4l2-3l1,3l4,2l5-1l1,2l-3,2l1,1l13,1l4-6l2,1l5,10l-2,2l-1,6l-6,3h-10l-3,6h-11l-4,3l-2,8h-2
		l-2-4l-2,3l-6-1l2-5l-7-7l-7-14h-4v-3l10-9l-1-7l3-9H102z"/>
</g>
<g>
	<path fill="#FED976" fill-opacity="0.8" stroke="#000000" stroke-width="0.2" stroke-linecap="round" stroke-linejoin="round" d="
		M134,23l1,2l5-2l4,6l9,4l1,4l4,4v4h4l7,7h4l4,3l-1,8l2,7l-3,3h-2l-4-5l-2,4l-4,2l-1-2l-8-4l-1-6l-3-3l-4,3l-1,3l-12-1l-2-1l3-1
		l-1-3l-5,1l-4-3v-2l-3,3l-5-4l-1-4h3l-2-8l8-6l2-7l6-7h2V23z"/>
</g>
<g>
	<path fill="#FED976" fill-opacity="0.8" stroke="#000000" stroke-width="0.2" stroke-linecap="round" stroke-linejoin="round" d="
		M173,72l1,1l3-3h6l5,3l1-4l3,2l2,11l5-2l3,1v3l-2,2l1,4l-1,2h-2v4h-5l-4,15l-12,12l-1-3h-8l-3-3h6l-8-8l-4-8l-7-3l3-1v2l7-8l-5-2
		l7-16l5-5l3,3L173,72z"/>
</g>
<g>
	<path fill="#FED976" fill-opacity="0.8" stroke="#000000" stroke-width="0.2" stroke-linecap="round" stroke-linejoin="round" d="
		M163,127l2,5h6l2,3l-1,2l-5,1l-5-1l-8,7l3,10h-15l-2,1l1,2l-3,3l-2-3l-6-3l1-4l3-1v-3l-3-4l-4-1v-11l2-4l5-3l2,1l1-5l2-2h9l3,6l7-2
		v4L163,127z"/>
</g>
<g>
	<path fill="#FFFFB2" fill-opacity="0.8" stroke="#000000" stroke-width="0.2" stroke-linecap="round" stroke-linejoin="round" d="
		M71,119l1,7l2,3l-1,6l-5-2l-1,2h-7l-2,4l6,1l1,1l-3,1l2,2h2v-3l2-1l2,5l-3,4l2,2l-11,1l-2,2l1,2l-3,5H41l-4-5l4-6l-2-1v-3l4-2l2-6
		l-4-2l2-5l-3,1l-1-4l-4-3l-1-3l3-3l3,1l1-8l3,1l8-2l5,4l-2,5l3,1l2,5l4-1l5-6H71z"/>
</g>
<g>
	<path fill="#FFFFB2" fill-opacity="0.8" stroke="#000000" stroke-width="0.2" stroke-linecap="round" stroke-linejoin="round" d="
		M78,69h6v2l9-1l7,14l7,6l-2,6l6,1l2-3l2,4h2l2-3l7,2v5l-4,2l4,1l-2,6h-6l-1-2l-3,3l1,5l-13,2l-5,7h-5l1,2l-3,4l-11,4l-2-4h-2l-2,3
		l1-5l-4-16l6-5h-4l-2-6h-3l1-3l-2-6l1-4l11-1l-2-19l1-2L78,69z"/>
</g>
<g>
	<path fill="#FED976" fill-opacity="0.8" stroke="#000000" stroke-width="0.2" stroke-linecap="round" stroke-linejoin="round" d="
		M157,70l5,2l1,2l-6,14l5,3l-5,7h-6l8,3l4,8l8,8h-5l2,3h-4l-1,7l-5-2v-4l-2-1l-1,2h-5l-1-5l-5,1l-5-1l-1-3l-2,2l-3-1l-1-3l-6-3v-4
		l-4-1l4-2v-5h-3l-5-4l1-3l4-3h11l1-3l4-3h7l7-3l1-6l2-2H157z M143,89v3h-2l-4,6l4,3l4-2l-1-3l3-2l-1-4l-2-1H143z"/>
</g>
<g>
	<path fill="#FED976" fill-opacity="0.8" stroke="#000000" stroke-width="0.2" stroke-linecap="round" stroke-linejoin="round" d="
		M139,117l-2,3v4l-2-1l-6,3l-2,4l1,6l-2,2l8,8v3l-3,1l-1,2l2,4l-3,3l1,6l-4,3l1,2l-3,5h-8l-2-1l2-8l-3-6l-4,6l-4-1l5-8l-1-5h-2l-1-3
		l1-5l-4-4l-5,6l-2-5l-3,1l-2,4l-3-2l2-11l3-4l-1-2l2-2l3,1l5-6l7-3l6,1l1-1l-2-5l3-3l5,2h2l1-2l7,3l1,3l3,1l2-2l1,2V117z M111,128
		v9l7,6h3v-5l-3-3l5-4v-3l-2-3l-6-1l-2,3L111,128z"/>
</g>
<g>
	<path fill="#FED976" fill-opacity="0.8" stroke="#000000" stroke-width="0.2" stroke-linecap="round" stroke-linejoin="round" d="
		M205,344l-1-3l-2-1l-10-1l3-7l5,1l-1-8h3l1-8l7,12l-2,14l-2,1H205z"/>
</g>
<g>
	<path fill="#FFFFB2" fill-opacity="0.8" stroke="#000000" stroke-width="0.2" stroke-linecap="round" stroke-linejoin="round" d="
		M173,396l7-6l1,1l1,10l-4-2l-3,1l-1-2L173,396z"/>
</g>
<g>
	<path fill="#FED976" fill-opacity="0.8" stroke="#000000" stroke-width="0.2" stroke-linecap="round" stroke-linejoin="round" d="
		M143,412l4-2l7,1l3,2l-2,5l-4,3l-5-1v-7l-2-1H143z"/>
</g>
<g>
	<path fill="#FED976" fill-opacity="0.8" stroke="#000000" stroke-width="0.2" stroke-linecap="round" stroke-linejoin="round" d="
		M132,388l-2-4h4l3-4l-1-2h-2l1-2l8-3l1,1l-5,15l-2,2l-4-2L132,388z"/>
</g>
<g>
	<path fill="#FFFFB2" fill-opacity="0.8" stroke="#000000" stroke-width="0.2" stroke-linecap="round" stroke-linejoin="round" d="
		M240,315l2,3l-12,5l-2,10l-4,4l-1,7l-3-3l-1,1l-1,11l-10-2v-2l-4-2l1-3l3-1l2-14l-7-12l-2-8l3-3l3,1l5-2l-1-3l-5-3l2-2l7-2l3,2l5-1
		l5,3v6l4,2v4l5,5l2-1H240z"/>
</g>
<g>
	<path fill="#FFFFB2" fill-opacity="0.8" stroke="#000000" stroke-width="0.2" stroke-linecap="round" stroke-linejoin="round" d="
		M206,299l6,5l-5,3h-5l-1,4l2,12l-1,2l-3-1l1,8h-5l-3,5v2l3,1h9v11l-2,6l-3,3l-5-1l1,7l-9,1l-1-11h-13l4-2v-3l-3-1l3-12l-9-2l2-2
		l2-8v-2l-3-1l3-1l-1-7l8-3h8v2l6-2l-1-1l2-4v-12l9-3l1,6l3,2V299z"/>
</g>
<g>
	<path fill="#FED976" fill-opacity="0.8" stroke="#000000" stroke-width="0.2" stroke-linecap="round" stroke-linejoin="round" d="
		M193,295l1,1l-2,4v11l-6,3v-2l-8-1l-5,4l-6-2l-6,1v-5h-3v2l-6,3l-5-4l4-2l-2-11l3-1l-7-7l2-6l3,3l2-1l2,2v3l4-2l1-4h3v2l-3,2l1,1
		l5-1l2-2l2-8l3-2l5,1l5,3l-2,7l5,4l1-1l7,3V295z"/>
</g>
<g>
	<path fill="#FED976" fill-opacity="0.8" stroke="#000000" stroke-width="0.2" stroke-linecap="round" stroke-linejoin="round" d="
		M161,308v5h6l4,3v6l-3,1l3,1v2l-2,8l-2,2h8l1,5l-2,3l-1,8l-4-3l-10,5l-4,4l-2-3l-4-1l1-3l-3-3l2-7l-3-8l-6-4l-3-4v-3l2-1l-5-4h3
		l2-3l5-1l-1-2l4-2l5,5l6-2v-2L161,308z"/>
</g>
<g>
	<path fill="#FFFFB2" fill-opacity="0.8" stroke="#000000" stroke-width="0.2" stroke-linecap="round" stroke-linejoin="round" d="
		M134,317l5,3l-2,2v3l2,4l7,4l3,8l-3,11l-5,5l1,3l-2,3h-3l-2,2l-3-3l-4-13v-5l-6-14l-3-1l6-7v-4l6-3h2L134,317z"/>
</g>
<g>
	<path fill="#FED976" fill-opacity="0.8" stroke="#000000" stroke-width="0.2" stroke-linecap="round" stroke-linejoin="round" d="
		M129,429l-1,7l-9,2v5h-10l-3-3l-2-6l-4,3l-2,6l-12-6l5-5l8,1l8-7l1-3l12,4l2-4l3-1l3,1l1,5V429z"/>
</g>
<g>
	<path fill="#FED976" fill-opacity="0.8" stroke="#000000" stroke-width="0.2" stroke-linecap="round" stroke-linejoin="round" d="
		M192,401l-2,6l3,3v2h-4v6l-2,2l4,2l5-5h2l-5,7l2,2h8l1,3l3,3h2l-1,2l-6,4l-1,5l-5,1h-4l-7-3l-1-2l-5-1l-4,2l-1,3l-7-1l-3-2l2-4
		l-1-3l-1,1l-1-2l4-3l2-4l-1-2l-4-1l1-7l-3-8l-10-7l5-6l-1-1l10-5l1,1l2-2l1-5l7,2l1,3l3-3l2-7l3-1v-10l6,1l5-2l-1,3l-5,5v2h5l1,4
		l-4,10l-1,11V401z M173,395l2,5l3-1l4,2v-6l-2-5l-6,5H173z"/>
</g>
<g>
	<path fill="#FFFFB2" fill-opacity="0.8" stroke="#000000" stroke-width="0.2" stroke-linecap="round" stroke-linejoin="round" d="
		M154,357l1,1l4-4l10-5l3,3l4-1v3l-4,1l2,2l11-1v11l1-1l1,3l-1,7l-3,1l-4,10l-2-3l-6-2l-2,1v5h-3l-10,5l1,1l-4,5l-19,5l-4-7l2-1v-7
		l4,2l3-2l5-15l-1-1l-8,3v-11l7-5l-1-3l5-5l1-4l3,2l-1,4l4,1L154,357z"/>
</g>
<g>
	<path fill="#FFFFB2" fill-opacity="0.8" stroke="#000000" stroke-width="0.2" stroke-linecap="round" stroke-linejoin="round" d="
		M134,378h2l1,2l-3,4V378z"/>
</g>
<g>
	<path fill="#FED976" fill-opacity="0.8" stroke="#000000" stroke-width="0.2" stroke-linecap="round" stroke-linejoin="round" d="
		M181,240l-1,4h2l3,4l-2,5l1,1l3,2l2-3h3l4-4l2,5l-2,2l5,4l4-1l6,3l2,3l1,2l-3,2v4l2,2l-1,10l5,9l-3,2l-5,1l-4,3l-3-5l1-3l-10,3v-2
		l-3-2l-7-1l-3-3l2-7l-1-1l-9-3l-3,2l-2,5l-6-6l3-15v-8l-3-6l-2-1l2-5l10-1v-2l4-2l5,3H181z"/>
</g>
<g>
	<path fill="#FED976" fill-opacity="0.8" stroke="#000000" stroke-width="0.2" stroke-linecap="round" stroke-linejoin="round" d="
		M165,436l-4,1l2,3l-1,9l2,1l2,6l-12,15l-6,5l-10,2l6-15l-5-1l-1,3l-5-1l-2,3l-2-7l3-3l-1-3l-5-5l-3,1l-4-5v-6l9-3l2-10l4-3l1-3
		l-2-2v-6l-3-1l-1-2l1-2l9-5l12-3l11,8l3,8l-1,6l4,1l1,3l-1,4l-5,3l1,2l1-1v2V436z M144,412l2,3l-1,3l6,3l4-3l2-5l-3-2l-7-1h-2
		L144,412z"/>
</g>
</svg>
